<svg fill="#228BE6" xmlns="http://www.w3.org/2000/svg"  viewBox="0 0 50 50" width="50px" height="50px"><path d="M 4.59375 8.0996094 C 4.4113695 8.0905984 4.2095163 8.0997303 3.9921875 8.1386719 C 3.1228723 8.2944379 2.1504071 9.103932 1.7910156 10.519531 C 1.5393646 11.512155 1.2847052 12.505965 1.0332031 13.501953 A 1.0001 1.0001 0 0 0 1.0292969 13.517578 C 0.65426709 15.10544 1.3922945 16.741867 2.7753906 17.556641 C 2.7753906 17.556641 2.7773438 17.558594 2.7773438 17.558594 C 2.8191008 17.583504 2.941323 17.651704 3.1015625 17.722656 C 3.266812 17.795826 3.5299218 17.907013 4.0566406 18.125 C 5.0088228 18.519069 7.275172 19.449439 10.78125 20.892578 C 9.7427738 28.364509 9.5721849 29.493253 9.5390625 30.130859 C 9.1997443 36.445472 14.131546 41.209014 20.384766 41.017578 C 23.019255 40.937358 25.37543 39.951491 27.458984 38.441406 C 30.094387 40.729435 33.522227 41.441176 36.861328 40.785156 C 42.119891 39.754491 46.884613 35.340487 47.839844 28.433594 C 48.552757 23.259483 48.896272 21.114679 49 20.007812 C 48.98163 20.195162 48.992094 20.076014 48.996094 20.052734 C 49.000094 20.029454 49.004196 19.994675 49.009766 19.953125 C 49.020996 19.870025 49.033166 19.758012 49.035156 19.625 C 49.039156 19.358976 49.009066 18.999874 48.841797 18.607422 C 48.507255 17.822518 47.511806 17.123605 46.103516 17.113281 A 1.0001 1.0001 0 0 0 46.095703 17.113281 C 45.105719 17.114279 44.112872 17.113182 43.117188 17.115234 A 1.0001 1.0001 0 0 0 43.089844 17.115234 C 41.538151 17.162734 40.211316 18.232753 39.792969 19.707031 C 39.751989 19.846967 39.713739 20.026776 39.566406 21.091797 C 39.418426 22.161463 39.136762 24.237842 38.566406 28.375 C 38.566406 28.375 38.564453 28.376953 38.564453 28.376953 C 38.429842 29.285228 38.154162 30.077162 37.736328 30.636719 C 37.318059 31.196858 36.789306 31.567303 35.892578 31.71875 A 1.0001 1.0001 0 0 0 35.890625 31.71875 C 35.055946 31.862075 34.385986 31.63875 33.933594 31.228516 C 33.481201 30.818284 33.216884 30.217821 33.314453 29.388672 C 33.499308 27.815418 33.676405 26.498235 33.806641 25.550781 C 33.871761 25.077054 33.926245 24.696369 33.962891 24.416016 C 33.981211 24.275839 33.995719 24.162825 34.005859 24.066406 C 34.015059 23.979266 34.033222 23.957891 34.013672 23.736328 C 33.964132 22.938586 33.594525 22.18426 32.939453 21.677734 C 32.49933 21.332317 31.901958 21.101114 31.25 21.041016 C 30.596473 20.980776 29.801457 21.002916 28.443359 21.003906 A 1.0001 1.0001 0 0 0 28.439453 21.003906 C 26.558034 21.015356 25.246244 22.291519 24.871094 23.667969 A 1.0001 1.0001 0 0 0 24.855469 23.728516 C 24.821199 23.895586 24.766119 24.222341 24.636719 25.035156 C 24.507319 25.847971 24.32129 27.069463 24.080078 28.771484 A 1.0001 1.0001 0 0 0 24.078125 28.787109 C 23.78602 31.127197 21.784853 32.062485 20.349609 31.681641 C 19.275177 31.389912 18.721838 30.372322 18.902344 29.216797 A 1.0001 1.0001 0 0 0 18.904297 29.199219 C 19.440392 25.347719 19.976589 21.498195 20.511719 17.646484 C 20.792842 15.921432 19.845594 14.17237 18.173828 13.539062 C 9.6731188 10.017405 6.7118417 8.7734086 5.5820312 8.3222656 L 5.578125 8.3203125 C 5.617549 8.3361725 5.3540223 8.2260075 5.078125 8.1660156 C 4.9390422 8.1357712 4.7761305 8.1086204 4.59375 8.0996094 z M 4.34375 10.107422 C 4.435092 10.091052 4.5562163 10.097821 4.6542969 10.119141 C 4.7523779 10.140471 4.7396069 10.137651 4.8339844 10.175781 A 1.0001 1.0001 0 0 0 4.8378906 10.177734 C 5.9102591 10.605903 8.8864693 11.85601 17.4375 15.398438 A 1.0001 1.0001 0 0 0 17.464844 15.408203 C 18.209793 15.690409 18.66797 16.528363 18.537109 17.326172 A 1.0001 1.0001 0 0 0 18.533203 17.351562 C 17.997952 21.204172 17.462061 25.055382 16.925781 28.908203 C 16.925781 28.908203 16.925781 28.910156 16.925781 28.910156 C 16.609325 30.942022 17.741278 33.04524 19.826172 33.611328 A 1.0001 1.0001 0 0 0 19.830078 33.613281 C 22.490578 34.323874 25.634854 32.46108 26.0625 29.035156 C 26.300818 27.354328 26.484514 26.146179 26.611328 25.349609 C 26.733384 24.582926 26.810813 24.174627 26.808594 24.181641 C 26.9912 23.524956 27.382359 23.01041 28.451172 23.003906 C 29.818502 23.002906 30.630659 22.993033 31.066406 23.033203 C 31.503129 23.073463 31.479451 23.072753 31.707031 23.251953 A 1.0001 1.0001 0 0 0 31.714844 23.257812 C 31.877967 23.383415 32.008539 23.633554 32.021484 23.865234 A 1.0001 1.0001 0 0 0 32.025391 23.917969 C 31.996381 23.652017 32.022425 23.793301 32.015625 23.857422 C 32.008925 23.921542 31.995816 24.025833 31.978516 24.158203 C 31.943916 24.422943 31.891556 24.803649 31.826172 25.279297 C 31.695473 26.230122 31.515171 27.562598 31.328125 29.154297 C 31.162694 30.560148 31.660736 31.866466 32.589844 32.708984 C 33.51804 33.550677 34.847732 33.926652 36.224609 33.691406 C 37.577882 33.462854 38.647363 32.759392 39.339844 31.832031 C 40.032325 30.904671 40.378377 29.794501 40.544922 28.667969 A 1.0001 1.0001 0 0 0 40.546875 28.658203 C 41.118964 24.508557 41.401509 22.432074 41.548828 21.367188 C 41.696148 20.3023 41.684138 20.36143 41.712891 20.263672 A 1.0001 1.0001 0 0 0 41.716797 20.253906 C 41.883828 19.662434 42.54761 19.133687 43.150391 19.115234 C 44.128386 19.113334 45.108232 19.114302 46.089844 19.113281 C 47.000553 19.119981 46.960995 19.294529 47.001953 19.390625 C 47.022433 19.438675 47.036246 19.522852 47.035156 19.595703 C 47.034612 19.632133 47.032197 19.664327 47.029297 19.685547 C 47.027897 19.696157 47.026691 19.703297 47.025391 19.710938 C 47.024091 19.718538 47.028796 19.618778 47.009766 19.8125 A 1.0001 1.0001 0 0 0 47.009766 19.816406 C 46.923326 20.739983 46.574138 22.972622 45.859375 28.160156 C 45.010606 34.297263 40.912 37.952931 36.476562 38.822266 C 33.398134 39.427072 30.440591 38.778716 28.25 36.546875 A 1.0001 1.0001 0 0 0 26.904297 36.472656 C 24.960205 38.056421 22.79104 38.944418 20.324219 39.019531 C 15.080118 39.180074 11.251657 35.494693 11.535156 30.236328 A 1.0001 1.0001 0 0 0 11.535156 30.234375 C 11.571286 29.538961 11.545965 29.925023 12.867188 20.398438 A 1.0001 1.0001 0 0 0 12.255859 19.337891 C 7.9650361 17.571257 5.8666249 16.708416 4.8203125 16.275391 C 4.2971563 16.058878 4.0342505 15.949482 3.9101562 15.894531 C 3.786062 15.839581 3.8653111 15.878751 3.8007812 15.839844 A 1.0001 1.0001 0 0 0 3.7910156 15.833984 C 3.1997129 15.486302 2.821816 14.631754 2.9765625 13.976562 C 3.2257839 12.98974 3.4774884 12.001882 3.7285156 11.011719 C 3.9581242 10.107318 4.1610652 10.140156 4.34375 10.107422 z"/></svg>